<?xml version="1.0" encoding="UTF-8" standalone="no"?>
<!DOCTYPE svg PUBLIC "-//W3C//DTD SVG 1.1//EN"
 "http://www.w3.org/Graphics/SVG/1.1/DTD/svg11.dtd">
<!-- Generated by graphviz version 6.0.1 (20220911.1526)
 -->
<!-- Title: g Pages: 1 -->
<svg width="454pt" height="407pt"
 viewBox="0.00 0.00 454.00 406.54" xmlns="http://www.w3.org/2000/svg" xmlns:xlink="http://www.w3.org/1999/xlink">
<g id="graph0" class="graph" transform="scale(1 1) rotate(0) translate(4 402.54)">
<title>g</title>
<polygon fill="white" stroke="none" points="-4,4 -4,-402.54 450,-402.54 450,4 -4,4"/>
<!-- %3 -->
<g id="node1" class="node">
<title>%3</title>
<polygon fill="none" stroke="black" points="8,-363.04 8,-384.04 112,-384.04 112,-363.04 8,-363.04"/>
<text text-anchor="start" x="20.5" y="-369.84" font-family="Cambria Math" font-size="14.00">Global Value</text>
<polygon fill="none" stroke="black" points="8,-342.04 8,-363.04 51,-363.04 51,-342.04 8,-342.04"/>
<text text-anchor="start" x="11" y="-349.84" font-family="Cambria Math" font-weight="bold" font-size="14.00">name</text>
<polygon fill="none" stroke="black" points="51,-342.04 51,-363.04 85,-363.04 85,-342.04 51,-342.04"/>
<text text-anchor="start" x="54" y="-349.84" font-family="Cambria Math" font-weight="bold" font-size="14.00">type</text>
<polygon fill="none" stroke="black" points="85,-342.04 85,-363.04 112,-363.04 112,-342.04 85,-342.04"/>
<text text-anchor="start" x="88" y="-349.84" font-family="Cambria Math" font-weight="bold" font-size="14.00">init</text>
</g>
<!-- %5 -->
<g id="node2" class="node">
<title>%5</title>
<polygon fill="none" stroke="black" points="146,-373.04 146,-394.04 292,-394.04 292,-373.04 146,-373.04"/>
<text text-anchor="start" x="203.5" y="-379.84" font-family="Cambria Math" font-size="14.00">main</text>
<polygon fill="none" stroke="black" points="146,-352.04 146,-373.04 292,-373.04 292,-352.04 146,-352.04"/>
<text text-anchor="start" x="203.5" y="-358.84" font-family="Cambria Math" font-size="14.00">entry</text>
<polygon fill="none" stroke="black" points="146,-331.04 146,-352.04 292,-352.04 292,-331.04 146,-331.04"/>
<text text-anchor="start" x="149" y="-337.84" font-family="Cambria Math" font-size="14.00" fill="lightcoral"> &#160;br label %while.cond0</text>
</g>
<!-- %9 -->
<g id="node4" class="node">
<title>%9</title>
<polygon fill="none" stroke="black" points="61,-266.04 61,-287.04 227,-287.04 227,-266.04 61,-266.04"/>
<text text-anchor="start" x="108" y="-272.84" font-family="Cambria Math" font-size="14.00">while.cond0</text>
<polygon fill="none" stroke="black" points="227,-266.04 227,-287.04 378,-287.04 378,-266.04 227,-266.04"/>
<text text-anchor="start" x="250.5" y="-272.84" font-family="Cambria Math" font-size="14.00">entry loop.body0 </text>
<polygon fill="none" stroke="black" points="61,-245.04 61,-266.04 227,-266.04 227,-245.04 61,-245.04"/>
<text text-anchor="start" x="84" y="-251.84" font-family="Cambria Math" font-size="14.00">Dominance Frontier</text>
<polygon fill="none" stroke="black" points="227,-245.04 227,-266.04 378,-266.04 378,-245.04 227,-245.04"/>
<text text-anchor="start" x="264.5" y="-251.84" font-family="Cambria Math" font-size="14.00">while.cond0 </text>
<polygon fill="none" stroke="black" points="61,-179.04 61,-245.04 378,-245.04 378,-179.04 61,-179.04"/>
<text text-anchor="start" x="64" y="-230.84" font-family="Cambria Math" font-size="14.00" fill="purple"> &#160;%phi1 = phi i32 [ 0, %entry ], [ %t0, %loop.body0 ]</text>
<text text-anchor="start" x="64" y="-215.84" font-family="Cambria Math" font-size="14.00" fill="purple"> &#160;%phi0 = phi i32 [ 3, %entry ], [ %t1, %loop.body0 ]</text>
<text text-anchor="start" x="133" y="-200.84" font-family="Cambria Math" font-size="14.00"> &#160;%t2 = icmp slt i32 %phi1, 5</text>
<text text-anchor="start" x="69" y="-185.84" font-family="Cambria Math" font-size="14.00" fill="lightcoral"> &#160;br i1 %t2, label %loop.body0, label %inline_exit0</text>
<polygon fill="none" stroke="black" points="61,-158.04 61,-179.04 227,-179.04 227,-158.04 61,-158.04"/>
<text text-anchor="start" x="132" y="-164.84" font-family="Cambria Math" font-size="14.00">true</text>
<polygon fill="none" stroke="black" points="227,-158.04 227,-179.04 378,-179.04 378,-158.04 227,-158.04"/>
<text text-anchor="start" x="288" y="-164.84" font-family="Cambria Math" font-size="14.00">false</text>
</g>
<!-- %5&#45;&gt;%9 -->
<g id="edge2" class="edge">
<title>%9:s&#45;&gt;%9</title>
<path fill="none" stroke="black" d="M219,-327.54C219,-319.21 219,-310.5 219,-301.83"/>
<polygon fill="black" stroke="black" points="222.5,-301.68 219,-291.68 215.5,-301.68 222.5,-301.68"/>
</g>
<!-- %7 -->
<g id="node3" class="node">
<title>%7</title>
<polygon fill="none" stroke="black" points="282,-68.04 282,-89.04 356,-89.04 356,-68.04 282,-68.04"/>
<text text-anchor="start" x="285" y="-74.84" font-family="Cambria Math" font-size="14.00">inline_exit0</text>
<polygon fill="none" stroke="black" points="356,-68.04 356,-89.04 438,-89.04 438,-68.04 356,-68.04"/>
<text text-anchor="start" x="359" y="-74.84" font-family="Cambria Math" font-size="14.00">while.cond0 </text>
<polygon fill="none" stroke="black" points="282,-47.04 282,-68.04 438,-68.04 438,-47.04 282,-47.04"/>
<text text-anchor="start" x="316" y="-53.84" font-family="Cambria Math" font-size="14.00"> &#160;ret i32 %phi0</text>
</g>
<!-- %9&#45;&gt;%7 -->
<g id="edge1" class="edge">
<title>%7:f1&#45;&gt;%7</title>
<path fill="none" stroke="red" d="M379,-168.04C406.4,-168.04 393.18,-131.01 378.78,-102.25"/>
<polygon fill="red" stroke="red" points="381.82,-100.52 374.11,-93.26 375.61,-103.74 381.82,-100.52"/>
</g>
<!-- %11 -->
<g id="node5" class="node">
<title>%11</title>
<polygon fill="none" stroke="black" points="40,-93.04 40,-114.04 166,-114.04 166,-93.04 40,-93.04"/>
<text text-anchor="start" x="69.5" y="-99.84" font-family="Cambria Math" font-size="14.00">loop.body0</text>
<polygon fill="none" stroke="black" points="166,-93.04 166,-114.04 248,-114.04 248,-93.04 166,-93.04"/>
<text text-anchor="start" x="169" y="-99.84" font-family="Cambria Math" font-size="14.00">while.cond0 </text>
<polygon fill="none" stroke="black" points="40,-72.04 40,-93.04 166,-93.04 166,-72.04 40,-72.04"/>
<text text-anchor="start" x="43" y="-78.84" font-family="Cambria Math" font-size="14.00">Dominance Frontier</text>
<polygon fill="none" stroke="black" points="166,-72.04 166,-93.04 248,-93.04 248,-72.04 166,-72.04"/>
<text text-anchor="start" x="169" y="-78.84" font-family="Cambria Math" font-size="14.00">while.cond0 </text>
<polygon fill="none" stroke="black" points="40,-21.04 40,-72.04 248,-72.04 248,-21.04 40,-21.04"/>
<text text-anchor="start" x="69.5" y="-57.84" font-family="Cambria Math" font-size="14.00"> &#160;%t1 = mul i32 %phi0, 2</text>
<text text-anchor="start" x="69.5" y="-42.84" font-family="Cambria Math" font-size="14.00"> &#160;%t0 = add i32 %phi1, 1</text>
<text text-anchor="start" x="74" y="-27.84" font-family="Cambria Math" font-size="14.00" fill="lightcoral"> &#160;br label %while.cond0</text>
</g>
<!-- %9&#45;&gt;%11 -->
<g id="edge4" class="edge">
<title>%11:f0&#45;&gt;%11</title>
<path fill="none" stroke="green" d="M144,-157.04C144,-147.95 144,-138.34 144,-128.93"/>
<polygon fill="green" stroke="green" points="147.5,-128.84 144,-118.84 140.5,-128.84 147.5,-128.84"/>
</g>
<!-- %11&#45;&gt;%9 -->
<g id="edge3" class="edge">
<title>%9:s&#45;&gt;%9</title>
<path fill="none" stroke="black" d="M144,-16.04C144,8.85 238.48,0.64 256,-17.04 271.88,-33.06 259.85,-96.31 256,-118.54 254.51,-127.15 252.37,-135.98 249.86,-144.69"/>
<polygon fill="black" stroke="black" points="246.45,-143.87 246.88,-154.46 253.14,-145.91 246.45,-143.87"/>
</g>
</g>
</svg>
