<?xml version="1.0" encoding="UTF-8" standalone="no"?>
<!DOCTYPE svg PUBLIC "-//W3C//DTD SVG 1.1//EN"
 "http://www.w3.org/Graphics/SVG/1.1/DTD/svg11.dtd">
<!-- Generated by graphviz version 2.49.3 (20211023.0002)
 -->
<!-- Title: g Pages: 1 -->
<svg width="1395pt" height="618pt"
 viewBox="0.00 0.00 1395.00 618.40" xmlns="http://www.w3.org/2000/svg" xmlns:xlink="http://www.w3.org/1999/xlink">
<g id="graph0" class="graph" transform="scale(1 1) rotate(0) translate(4 614.4)">
<title>g</title>
<polygon fill="white" stroke="transparent" points="-4,4 -4,-614.4 1391,-614.4 1391,4 -4,4"/>
<!-- %3 -->
<g id="node1" class="node">
<title>%3</title>
<polygon fill="none" stroke="black" points="8.5,-562.9 8.5,-583.9 569.5,-583.9 569.5,-562.9 8.5,-562.9"/>
<text text-anchor="start" x="249" y="-569.7" font-family="Cambria Math" font-size="14.00">Global Value</text>
<polygon fill="none" stroke="black" points="8.5,-541.9 8.5,-562.9 51.5,-562.9 51.5,-541.9 8.5,-541.9"/>
<text text-anchor="start" x="11.5" y="-549.7" font-family="Cambria Math" font-weight="bold" font-size="14.00">name</text>
<polygon fill="none" stroke="black" points="51.5,-541.9 51.5,-562.9 120.5,-562.9 120.5,-541.9 51.5,-541.9"/>
<text text-anchor="start" x="71.5" y="-549.7" font-family="Cambria Math" font-weight="bold" font-size="14.00">type</text>
<polygon fill="none" stroke="black" points="120.5,-541.9 120.5,-562.9 569.5,-562.9 569.5,-541.9 120.5,-541.9"/>
<text text-anchor="start" x="334.5" y="-549.7" font-family="Cambria Math" font-weight="bold" font-size="14.00">init</text>
<polygon fill="none" stroke="black" points="8.5,-520.9 8.5,-541.9 51.5,-541.9 51.5,-520.9 8.5,-520.9"/>
<text text-anchor="start" x="26.5" y="-527.7" font-family="Cambria Math" font-size="14.00">c</text>
<polygon fill="none" stroke="black" points="51.5,-520.9 51.5,-541.9 120.5,-541.9 120.5,-520.9 51.5,-520.9"/>
<text text-anchor="start" x="73.5" y="-527.7" font-family="Cambria Math" font-size="14.00">i32*</text>
<polygon fill="none" stroke="black" points="120.5,-520.9 120.5,-541.9 569.5,-541.9 569.5,-520.9 120.5,-520.9"/>
<text text-anchor="start" x="304" y="-527.7" font-family="Cambria Math" font-size="14.00">zeroinitializer</text>
<polygon fill="none" stroke="black" points="8.5,-499.9 8.5,-520.9 51.5,-520.9 51.5,-499.9 8.5,-499.9"/>
<text text-anchor="start" x="14" y="-506.7" font-family="Cambria Math" font-size="14.00">array</text>
<polygon fill="none" stroke="black" points="51.5,-499.9 51.5,-520.9 120.5,-520.9 120.5,-499.9 51.5,-499.9"/>
<text text-anchor="start" x="54.5" y="-506.7" font-family="Cambria Math" font-size="14.00">[10 x i32]*</text>
<polygon fill="none" stroke="black" points="120.5,-499.9 120.5,-520.9 569.5,-520.9 569.5,-499.9 120.5,-499.9"/>
<text text-anchor="start" x="123.5" y="-506.7" font-family="Cambria Math" font-size="14.00">[10 x i32] [i32 3, i32 4, i32 5, i32 0, i32 0, i32 0, i32 0, i32 0, i32 0, i32 0]</text>
</g>
<!-- %5 -->
<g id="node2" class="node">
<title>%5</title>
<polygon fill="none" stroke="black" points="603.5,-559.9 603.5,-580.9 755.5,-580.9 755.5,-559.9 603.5,-559.9"/>
<text text-anchor="start" x="639" y="-566.7" font-family="Cambria Math" font-size="14.00">deepWhileBr</text>
<polygon fill="none" stroke="black" points="603.5,-538.9 603.5,-559.9 755.5,-559.9 755.5,-538.9 603.5,-538.9"/>
<text text-anchor="start" x="663.5" y="-545.7" font-family="Cambria Math" font-size="14.00">entry</text>
<polygon fill="none" stroke="black" points="603.5,-502.9 603.5,-538.9 755.5,-538.9 755.5,-502.9 603.5,-502.9"/>
<text text-anchor="start" x="606.5" y="-524.7" font-family="Cambria Math" font-size="14.00"> &#160;%t0 = add i32 %a, %b</text>
<text text-anchor="start" x="607.5" y="-509.7" font-family="Cambria Math" font-size="14.00" fill="lightcoral"> &#160;br label %while.cond0</text>
</g>
<!-- %7 -->
<g id="node3" class="node">
<title>%7</title>
<polygon fill="none" stroke="black" points="444.5,-412.4 444.5,-433.4 661.5,-433.4 661.5,-412.4 444.5,-412.4"/>
<text text-anchor="start" x="516" y="-419.2" font-family="Cambria Math" font-size="14.00">while.cond0</text>
<polygon fill="none" stroke="black" points="661.5,-412.4 661.5,-433.4 914.5,-433.4 914.5,-412.4 661.5,-412.4"/>
<text text-anchor="start" x="709" y="-419.2" font-family="Cambria Math" font-size="14.00">entry if.then0 loop.body0 </text>
<polygon fill="none" stroke="black" points="444.5,-391.4 444.5,-412.4 661.5,-412.4 661.5,-391.4 444.5,-391.4"/>
<text text-anchor="start" x="491.5" y="-398.2" font-family="Cambria Math" font-size="14.00">Dominance Frontier</text>
<polygon fill="none" stroke="black" points="661.5,-391.4 661.5,-412.4 914.5,-412.4 914.5,-391.4 661.5,-391.4"/>
<text text-anchor="start" x="749" y="-398.2" font-family="Cambria Math" font-size="14.00">while.cond0 </text>
<polygon fill="none" stroke="black" points="444.5,-340.4 444.5,-391.4 914.5,-391.4 914.5,-340.4 444.5,-340.4"/>
<text text-anchor="start" x="447.5" y="-377.2" font-family="Cambria Math" font-size="14.00" fill="purple"> &#160;%phi0 = phi i32 [ %t0, %entry ], [ %t1, %if.then0 ], [ %phi0, %loop.body0 ]</text>
<text text-anchor="start" x="587" y="-362.2" font-family="Cambria Math" font-size="14.00"> &#160;%t2 = icmp slt i32 %phi0, 75</text>
<text text-anchor="start" x="526.5" y="-347.2" font-family="Cambria Math" font-size="14.00" fill="lightcoral"> &#160;br i1 %t2, label %loop.body0, label %while.end0</text>
<polygon fill="none" stroke="black" points="444.5,-319.4 444.5,-340.4 661.5,-340.4 661.5,-319.4 444.5,-319.4"/>
<text text-anchor="start" x="540.5" y="-326.2" font-family="Cambria Math" font-size="14.00">true</text>
<polygon fill="none" stroke="black" points="661.5,-319.4 661.5,-340.4 914.5,-340.4 914.5,-319.4 661.5,-319.4"/>
<text text-anchor="start" x="773" y="-326.2" font-family="Cambria Math" font-size="14.00">false</text>
</g>
<!-- %5&#45;&gt;%7 -->
<g id="edge1" class="edge">
<title>%7:s&#45;&gt;%7</title>
<path fill="none" stroke="black" d="M679.5,-497.9C679.5,-481.62 679.5,-464.1 679.5,-447.59"/>
<polygon fill="black" stroke="black" points="683,-447.47 679.5,-437.47 676,-447.47 683,-447.47"/>
</g>
<!-- %9 -->
<g id="node4" class="node">
<title>%9</title>
<polygon fill="none" stroke="black" points="375.5,-237.4 375.5,-258.4 546.5,-258.4 546.5,-237.4 375.5,-237.4"/>
<text text-anchor="start" x="426.5" y="-244.2" font-family="Cambria Math" font-size="14.00">loop.body0</text>
<polygon fill="none" stroke="black" points="546.5,-237.4 546.5,-258.4 672.5,-258.4 672.5,-237.4 546.5,-237.4"/>
<text text-anchor="start" x="570.5" y="-244.2" font-family="Cambria Math" font-size="14.00">while.cond0 </text>
<polygon fill="none" stroke="black" points="375.5,-216.4 375.5,-237.4 546.5,-237.4 546.5,-216.4 375.5,-216.4"/>
<text text-anchor="start" x="399.5" y="-223.2" font-family="Cambria Math" font-size="14.00">Dominance Frontier</text>
<polygon fill="none" stroke="black" points="546.5,-216.4 546.5,-237.4 672.5,-237.4 672.5,-216.4 546.5,-216.4"/>
<text text-anchor="start" x="570.5" y="-223.2" font-family="Cambria Math" font-size="14.00">while.cond0 </text>
<polygon fill="none" stroke="black" points="375.5,-180.4 375.5,-216.4 672.5,-216.4 672.5,-180.4 375.5,-180.4"/>
<text text-anchor="start" x="428" y="-202.2" font-family="Cambria Math" font-size="14.00"> &#160;%t3 = icmp slt i32 %phi0, 100</text>
<text text-anchor="start" x="378.5" y="-187.2" font-family="Cambria Math" font-size="14.00" fill="lightcoral"> &#160;br i1 %t3, label %if.then0, label %while.cond0</text>
<polygon fill="none" stroke="black" points="375.5,-159.4 375.5,-180.4 546.5,-180.4 546.5,-159.4 375.5,-159.4"/>
<text text-anchor="start" x="448.5" y="-166.2" font-family="Cambria Math" font-size="14.00">true</text>
<polygon fill="none" stroke="black" points="546.5,-159.4 546.5,-180.4 672.5,-180.4 672.5,-159.4 546.5,-159.4"/>
<text text-anchor="start" x="594.5" y="-166.2" font-family="Cambria Math" font-size="14.00">false</text>
</g>
<!-- %7&#45;&gt;%9 -->
<g id="edge4" class="edge">
<title>%9:f0&#45;&gt;%9</title>
<path fill="none" stroke="green" d="M552.5,-318.4C552.5,-303.42 549.86,-287.65 546.18,-272.94"/>
<polygon fill="green" stroke="green" points="549.47,-271.68 543.48,-262.94 542.71,-273.51 549.47,-271.68"/>
</g>
<!-- %11 -->
<g id="node5" class="node">
<title>%11</title>
<polygon fill="none" stroke="black" points="745.5,-224.4 745.5,-245.4 827.5,-245.4 827.5,-224.4 745.5,-224.4"/>
<text text-anchor="start" x="753" y="-231.2" font-family="Cambria Math" font-size="14.00">while.end0</text>
<polygon fill="none" stroke="black" points="827.5,-224.4 827.5,-245.4 920.5,-245.4 920.5,-224.4 827.5,-224.4"/>
<text text-anchor="start" x="835" y="-231.2" font-family="Cambria Math" font-size="14.00">while.cond0 </text>
<polygon fill="none" stroke="black" points="745.5,-173.4 745.5,-224.4 920.5,-224.4 920.5,-173.4 745.5,-173.4"/>
<text text-anchor="start" x="756" y="-210.2" font-family="Cambria Math" font-size="14.00" fill="#00cd00"> &#160;%t4 = load i32, i32* @c</text>
<text text-anchor="start" x="748.5" y="-195.2" font-family="Cambria Math" font-size="14.00"> &#160;%t5 = add i32 %phi0, %t4</text>
<text text-anchor="start" x="795.5" y="-180.2" font-family="Cambria Math" font-size="14.00"> &#160;ret i32 %t5</text>
</g>
<!-- %7&#45;&gt;%11 -->
<g id="edge5" class="edge">
<title>%11:f1&#45;&gt;%11</title>
<path fill="none" stroke="red" d="M788.5,-318.4C788.5,-297.97 795.34,-276.87 803.62,-258.8"/>
<polygon fill="red" stroke="red" points="806.85,-260.17 808.06,-249.64 800.55,-257.11 806.85,-260.17"/>
</g>
<!-- %9&#45;&gt;%7 -->
<g id="edge3" class="edge">
<title>%7:f1&#45;&gt;%7</title>
<path fill="none" stroke="red" d="M673.5,-169.4C687.41,-169.4 686.63,-245.41 683.88,-305.09"/>
<polygon fill="red" stroke="red" points="680.38,-305.11 683.39,-315.27 687.37,-305.45 680.38,-305.11"/>
</g>
<!-- %13 -->
<g id="node6" class="node">
<title>%13</title>
<polygon fill="none" stroke="black" points="478.5,-78.4 478.5,-99.4 607.5,-99.4 607.5,-78.4 478.5,-78.4"/>
<text text-anchor="start" x="520" y="-85.2" font-family="Cambria Math" font-size="14.00">if.then0</text>
<polygon fill="none" stroke="black" points="607.5,-78.4 607.5,-99.4 691.5,-99.4 691.5,-78.4 607.5,-78.4"/>
<text text-anchor="start" x="613" y="-85.2" font-family="Cambria Math" font-size="14.00">loop.body0 </text>
<polygon fill="none" stroke="black" points="478.5,-57.4 478.5,-78.4 607.5,-78.4 607.5,-57.4 478.5,-57.4"/>
<text text-anchor="start" x="481.5" y="-64.2" font-family="Cambria Math" font-size="14.00">Dominance Frontier</text>
<polygon fill="none" stroke="black" points="607.5,-57.4 607.5,-78.4 691.5,-78.4 691.5,-57.4 607.5,-57.4"/>
<text text-anchor="start" x="610.5" y="-64.2" font-family="Cambria Math" font-size="14.00">while.cond0 </text>
<polygon fill="none" stroke="black" points="478.5,-21.4 478.5,-57.4 691.5,-57.4 691.5,-21.4 478.5,-21.4"/>
<text text-anchor="start" x="505" y="-43.2" font-family="Cambria Math" font-size="14.00"> &#160;%t1 = add i32 %phi0, 42</text>
<text text-anchor="start" x="513" y="-28.2" font-family="Cambria Math" font-size="14.00" fill="lightcoral"> &#160;br label %while.cond0</text>
</g>
<!-- %9&#45;&gt;%13 -->
<g id="edge6" class="edge">
<title>%13:f0&#45;&gt;%13</title>
<path fill="none" stroke="green" d="M460.5,-158.4C460.5,-139.38 469.67,-123.53 483.02,-110.53"/>
<polygon fill="green" stroke="green" points="485.67,-112.86 490.83,-103.6 481.03,-107.62 485.67,-112.86"/>
</g>
<!-- %13&#45;&gt;%7 -->
<g id="edge2" class="edge">
<title>%7:s&#45;&gt;%7</title>
<path fill="none" stroke="black" d="M584.5,-16.4C584.5,9.04 681.09,0.67 699,-17.4 737.79,-56.54 713.6,-212.78 694.99,-305.42"/>
<polygon fill="black" stroke="black" points="691.55,-304.79 692.98,-315.29 698.41,-306.19 691.55,-304.79"/>
</g>
<!-- %27 -->
<g id="node7" class="node">
<title>%27</title>
<polygon fill="none" stroke="black" points="922.5,-584.9 922.5,-605.9 1379.5,-605.9 1379.5,-584.9 922.5,-584.9"/>
<text text-anchor="start" x="1135.5" y="-591.7" font-family="Cambria Math" font-size="14.00">main</text>
<polygon fill="none" stroke="black" points="922.5,-563.9 922.5,-584.9 1379.5,-584.9 1379.5,-563.9 922.5,-563.9"/>
<text text-anchor="start" x="1135" y="-570.7" font-family="Cambria Math" font-size="14.00">entry</text>
<polygon fill="none" stroke="black" points="922.5,-497.9 922.5,-563.9 1379.5,-563.9 1379.5,-497.9 922.5,-497.9"/>
<text text-anchor="start" x="925.5" y="-549.7" font-family="Cambria Math" font-size="14.00"> &#160;%t6 = getelementptr inbounds [10 x i32], [10 x i32]* @array, i32 0, i32 0</text>
<text text-anchor="start" x="1074" y="-534.7" font-family="Cambria Math" font-size="14.00" fill="#00cd00"> &#160;%t7 = load i32, i32* @c</text>
<text text-anchor="start" x="1067.5" y="-519.7" font-family="Cambria Math" font-size="14.00"> &#160;%t8 = icmp sgt i32 %t7, 0</text>
<text text-anchor="start" x="1020.5" y="-504.7" font-family="Cambria Math" font-size="14.00" fill="lightcoral"> &#160;br i1 %t8, label %if.then1, label %if.else0</text>
<polygon fill="none" stroke="black" points="922.5,-476.9 922.5,-497.9 1148.5,-497.9 1148.5,-476.9 922.5,-476.9"/>
<text text-anchor="start" x="1023" y="-483.7" font-family="Cambria Math" font-size="14.00">true</text>
<polygon fill="none" stroke="black" points="1148.5,-476.9 1148.5,-497.9 1379.5,-497.9 1379.5,-476.9 1148.5,-476.9"/>
<text text-anchor="start" x="1249" y="-483.7" font-family="Cambria Math" font-size="14.00">false</text>
</g>
<!-- %29 -->
<g id="node8" class="node">
<title>%29</title>
<polygon fill="none" stroke="black" points="949.5,-394.4 949.5,-415.4 1078.5,-415.4 1078.5,-394.4 949.5,-394.4"/>
<text text-anchor="start" x="991" y="-401.2" font-family="Cambria Math" font-size="14.00">if.then1</text>
<polygon fill="none" stroke="black" points="1078.5,-394.4 1078.5,-415.4 1130.5,-415.4 1130.5,-394.4 1078.5,-394.4"/>
<text text-anchor="start" x="1086.5" y="-401.2" font-family="Cambria Math" font-size="14.00">entry </text>
<polygon fill="none" stroke="black" points="949.5,-373.4 949.5,-394.4 1078.5,-394.4 1078.5,-373.4 949.5,-373.4"/>
<text text-anchor="start" x="952.5" y="-380.2" font-family="Cambria Math" font-size="14.00">Dominance Frontier</text>
<polygon fill="none" stroke="black" points="1078.5,-373.4 1078.5,-394.4 1130.5,-394.4 1130.5,-373.4 1078.5,-373.4"/>
<text text-anchor="start" x="1081.5" y="-380.2" font-family="Cambria Math" font-size="14.00">if.end0 </text>
<polygon fill="none" stroke="black" points="949.5,-337.4 949.5,-373.4 1130.5,-373.4 1130.5,-337.4 949.5,-337.4"/>
<text text-anchor="start" x="974.5" y="-359.2" font-family="Cambria Math" font-size="14.00" fill="deepskyblue"> &#160;store i32 2, i32* @c</text>
<text text-anchor="start" x="983.5" y="-344.2" font-family="Cambria Math" font-size="14.00" fill="lightcoral"> &#160;br label %if.end0</text>
</g>
<!-- %27&#45;&gt;%29 -->
<g id="edge7" class="edge">
<title>%29:f0&#45;&gt;%29</title>
<path fill="none" stroke="green" d="M1035.5,-475.9C1035.5,-460.89 1035.97,-444.59 1036.59,-429.66"/>
<polygon fill="green" stroke="green" points="1040.09,-429.72 1037.04,-419.57 1033.1,-429.41 1040.09,-429.72"/>
</g>
<!-- %31 -->
<g id="node9" class="node">
<title>%31</title>
<polygon fill="none" stroke="black" points="1171.5,-394.4 1171.5,-415.4 1300.5,-415.4 1300.5,-394.4 1171.5,-394.4"/>
<text text-anchor="start" x="1213.5" y="-401.2" font-family="Cambria Math" font-size="14.00">if.else0</text>
<polygon fill="none" stroke="black" points="1300.5,-394.4 1300.5,-415.4 1352.5,-415.4 1352.5,-394.4 1300.5,-394.4"/>
<text text-anchor="start" x="1308.5" y="-401.2" font-family="Cambria Math" font-size="14.00">entry </text>
<polygon fill="none" stroke="black" points="1171.5,-373.4 1171.5,-394.4 1300.5,-394.4 1300.5,-373.4 1171.5,-373.4"/>
<text text-anchor="start" x="1174.5" y="-380.2" font-family="Cambria Math" font-size="14.00">Dominance Frontier</text>
<polygon fill="none" stroke="black" points="1300.5,-373.4 1300.5,-394.4 1352.5,-394.4 1352.5,-373.4 1300.5,-373.4"/>
<text text-anchor="start" x="1303.5" y="-380.2" font-family="Cambria Math" font-size="14.00">if.end0 </text>
<polygon fill="none" stroke="black" points="1171.5,-337.4 1171.5,-373.4 1352.5,-373.4 1352.5,-337.4 1171.5,-337.4"/>
<text text-anchor="start" x="1196.5" y="-359.2" font-family="Cambria Math" font-size="14.00" fill="deepskyblue"> &#160;store i32 3, i32* @c</text>
<text text-anchor="start" x="1205.5" y="-344.2" font-family="Cambria Math" font-size="14.00" fill="lightcoral"> &#160;br label %if.end0</text>
</g>
<!-- %27&#45;&gt;%31 -->
<g id="edge8" class="edge">
<title>%31:f1&#45;&gt;%31</title>
<path fill="none" stroke="red" d="M1264.5,-475.9C1264.5,-460.89 1264.15,-444.6 1263.68,-429.66"/>
<polygon fill="red" stroke="red" points="1267.18,-429.45 1263.35,-419.58 1260.18,-429.69 1267.18,-429.45"/>
</g>
<!-- %33 -->
<g id="node10" class="node">
<title>%33</title>
<polygon fill="none" stroke="black" points="1026.5,-254.4 1026.5,-275.4 1162.5,-275.4 1162.5,-254.4 1026.5,-254.4"/>
<text text-anchor="start" x="1073" y="-261.2" font-family="Cambria Math" font-size="14.00">if.end0</text>
<polygon fill="none" stroke="black" points="1162.5,-254.4 1162.5,-275.4 1355.5,-275.4 1355.5,-254.4 1162.5,-254.4"/>
<text text-anchor="start" x="1209.5" y="-261.2" font-family="Cambria Math" font-size="14.00">if.then1 if.else0 </text>
<polygon fill="none" stroke="black" points="1026.5,-143.4 1026.5,-254.4 1355.5,-254.4 1355.5,-143.4 1026.5,-143.4"/>
<text text-anchor="start" x="1114" y="-240.2" font-family="Cambria Math" font-size="14.00" fill="#00cd00"> &#160;%t9 = load i32, i32* @c</text>
<text text-anchor="start" x="1110" y="-225.2" font-family="Cambria Math" font-size="14.00" fill="#00cd00"> &#160;%t10 = load i32, i32* @c</text>
<text text-anchor="start" x="1033.5" y="-210.2" font-family="Cambria Math" font-size="14.00"> &#160;%t11 = call i32 @deepWhileBr(i32 %t9, i32 %t10)</text>
<text text-anchor="start" x="1029.5" y="-195.2" font-family="Cambria Math" font-size="14.00"> &#160;%t12 = getelementptr inbounds i32, i32* %t6, i32 0</text>
<text text-anchor="start" x="1104.5" y="-180.2" font-family="Cambria Math" font-size="14.00" fill="#00cd00"> &#160;%t13 = load i32, i32* %t12</text>
<text text-anchor="start" x="1102.5" y="-165.2" font-family="Cambria Math" font-size="14.00"> &#160;%t14 = add i32 %t11, %t13</text>
<text text-anchor="start" x="1149.5" y="-150.2" font-family="Cambria Math" font-size="14.00"> &#160;ret i32 %t14</text>
</g>
<!-- %29&#45;&gt;%33 -->
<g id="edge9" class="edge">
<title>%33:s&#45;&gt;%33</title>
<path fill="none" stroke="black" d="M1039.5,-332.4C1039.5,-315.52 1045.28,-300.57 1054.59,-287.45"/>
<polygon fill="black" stroke="black" points="1057.39,-289.54 1060.81,-279.51 1051.89,-285.22 1057.39,-289.54"/>
</g>
<!-- %31&#45;&gt;%33 -->
<g id="edge10" class="edge">
<title>%33:s&#45;&gt;%33</title>
<path fill="none" stroke="black" d="M1261.5,-332.4C1261.5,-317.47 1257.48,-302.73 1251.35,-288.95"/>
<polygon fill="black" stroke="black" points="1254.31,-287.03 1246.79,-279.56 1248.01,-290.09 1254.31,-287.03"/>
</g>
</g>
</svg>
